<svg width="286" height="194" viewBox="0 0 286 194" fill="none" xmlns="http://www.w3.org/2000/svg">
<path d="M118.94 19.2498C113.506 10.7225 104.28 5.62483 91.5095 4.12483C75.9975 2.30063 64.3725 1.58963 50.0405 1.58963C48.2436 1.58963 45.9194 1.46463 43.2632 1.3201C31.3922 0.691187 13.4782 -0.269706 5.33322 7.43339C2.48162 10.1365 1.03242 13.6326 1.06762 17.4139C-0.272177 26.3358 0.231687 35.0589 0.719967 43.4999C0.993407 48.2265 1.27465 53.1093 1.22387 57.9299C1.19653 60.5744 1.05982 63.1838 0.926998 65.7737C0.466058 74.6292 -0.0026927 83.7897 3.845 93.1017C11.9661 112.762 30.228 110.836 46.306 109.133L49.1966 108.82C51.97 108.82 58.1771 107.176 58.3646 107.027C59.0482 106.844 60.6029 107.168 63.0912 107.992C61.556 121.652 57.224 131.844 49.2082 140.785C46.7434 143.527 42.9699 146.328 38.9782 149.297C31.154 155.109 22.2832 161.695 20.3142 170.442C19.1228 175.746 21.1267 180.93 25.9431 185.036C31.7673 189.997 41.5451 193.083 49.3691 193.083C52.1074 193.083 54.6113 192.708 56.6113 191.895C61.9082 190.575 71.8533 187.297 78.9663 180.18C109.435 147.914 124.255 108.266 124.255 58.9701L124.24 49.1693C125.458 36.7713 123.677 26.7003 118.939 19.2473L118.94 19.2498Z" fill="#C0B5F5"/>
<path d="M280.139 19.2498C274.705 10.7225 265.479 5.62483 252.709 4.12483C237.197 2.30063 225.572 1.58963 211.24 1.58963C209.443 1.58963 207.119 1.46463 204.462 1.3201C192.591 0.691187 174.677 -0.269706 166.532 7.43339C163.681 10.1365 162.232 13.6326 162.267 17.4139C160.927 26.3358 161.431 35.0589 161.919 43.4999C162.193 48.2265 162.474 53.1093 162.423 57.9299C162.396 60.5744 162.259 63.1838 162.126 65.7737C161.665 74.6292 161.197 83.7897 165.044 93.1017C173.165 112.762 191.427 110.836 207.505 109.133L210.396 108.82C213.169 108.82 219.376 107.176 219.564 107.027C220.247 106.844 221.802 107.168 224.29 107.992C222.755 121.652 218.423 131.844 210.407 140.785C207.943 143.527 204.169 146.328 200.177 149.297C192.353 155.109 183.482 161.695 181.513 170.442C180.322 175.746 182.326 180.93 187.142 185.036C192.967 189.997 202.744 193.083 210.568 193.083C213.307 193.083 215.811 192.708 217.811 191.895C223.107 190.575 233.053 187.297 240.166 180.18C270.635 147.914 285.455 108.266 285.455 58.9701L285.439 49.1693C286.658 36.7713 284.876 26.7003 280.138 19.2473L280.139 19.2498Z" fill="#C0B5F5"/>
</svg>
