<svg width="243" height="78" viewBox="0 0 243 78" fill="none" xmlns="http://www.w3.org/2000/svg">
<path d="M107.4 73.1998C133.6 72.6998 162.9 70.8998 191.6 65.4998C200.5 63.7998 209.3 61.7999 217.6 58.4999C221.3 56.9999 224.9 55.2999 228.2 53.2999C230.6 51.7999 232.6 49.7999 234.1 47.6999C237.7 42.6999 236.7 37.5999 231.2 33.8999C228 31.6999 224.2 29.8998 220.4 28.3998C209.2 23.9998 197.4 21.0998 185.4 18.7998C175.4 16.8998 165.2 16.0998 155 15.5998C153.8 15.4998 152.5 15.5998 151.4 15.1998C150.6 14.8998 149.4 13.9998 149.5 13.3998C149.6 12.5998 150.6 11.7998 151.5 11.3998C152.4 10.9998 153.6 11.1998 154.7 11.1998C171.3 11.0998 187.4 13.6998 203 17.9998C210.6 20.0998 218.1 22.5998 225.4 25.2998C229.2 26.6998 232.8 28.7998 235.9 31.0998C242.5 35.9998 243.8 42.4999 240.1 48.9999C238.2 52.3999 235.2 55.0999 231.6 57.3999C225.2 61.4999 217.8 64.0998 210.2 66.1998C195.4 70.2998 180.1 72.6998 164.6 74.3998C146.2 76.4998 127.6 77.5998 109 77.8998C86.7004 78.1998 64.5004 77.2998 42.7004 73.1998C34.0004 71.5998 25.7004 69.1998 17.9004 65.5998C12.9004 63.1998 8.30038 60.4999 4.80038 56.6999C-0.899621 50.5999 -1.49962 44.1999 2.70038 37.3999C5.10038 33.5999 8.60038 30.4999 12.5004 27.6999C22.8004 20.1999 35.0004 15.1998 47.9004 11.2998C64.7004 6.09985 82.2004 3.29985 100.1 1.59985C123 -0.60015 145.9 -0.30015 168.7 1.69985C188.4 3.39985 207.9 6.29985 226.6 11.8998C229 12.5998 231.3 13.4998 233.6 14.3998C235.2 14.9998 236.3 15.8998 235.6 17.3998C235.1 18.4998 233.5 18.8998 231.4 18.0998C219.6 13.8998 207.1 11.7998 194.6 9.69985C179.9 7.29985 165.1 5.99985 150.1 5.19985C123.5 3.89985 97.3004 5.49985 71.4004 10.4998C57.5004 12.9998 44.1004 16.8998 31.6004 22.5998C25.1004 25.4998 19.1004 28.8999 14.0004 33.1999C12.1004 34.7999 10.3004 36.5999 8.80038 38.4999C4.30038 44.3999 5.00038 50.1999 11.0004 55.1999C14.1004 57.6999 17.7004 59.7999 21.4004 61.6999C29.8004 65.7999 39.1004 67.8998 48.7004 69.3998C67.0004 72.2998 85.6004 73.2998 107.4 73.1998Z" fill="#FF715B"/>
</svg>