<svg width="279" height="264" viewBox="0 0 279 264" fill="none" xmlns="http://www.w3.org/2000/svg">
<path d="M120.709 0.830086C105.807 1.48243 97.1191 12.0491 93.076 32.6931C89.0174 53.1771 89.6347 74.3061 92.0058 95.3691C83.9355 90.8652 75.7987 86.4589 67.5287 82.4001C49.4467 73.6579 29.4547 60.8571 9.27075 76.447C-6.93625 105.572 -1.78824 129.783 24.9508 138.537C38.2478 142.912 63.7788 156.459 76.7708 161.709C76.845 161.74 76.8997 161.771 76.9622 161.807C60.8602 172.924 45.0132 185.202 30.6262 200.272C23.6262 207.627 13.6142 214.92 23.2043 223.467C41.8723 240.131 57.6923 243.666 73.3133 227.939C82.4149 218.807 93.4033 206.107 104.001 201.334C105.431 215.725 107.013 230.857 108.157 242.916C109.712 258.795 123.091 260.256 136.313 262.783C153.555 266.049 161.008 254.49 159.352 227.713C158.903 220.389 159.024 210.084 159.481 198.35C183.493 209.6 207.282 220.776 234.559 232.186C247.004 237.401 260.711 243.76 261.625 224.444C262.504 205.678 255.852 186.456 239.07 178.424L193.765 151.072L249.023 104.728C263.609 90.2441 290.757 71.2201 272.711 48.1731C252.488 22.3531 224.453 38.0991 207.316 61.3961C198.785 72.9701 183.789 82.3731 174.418 93.2241C171.407 96.3022 168.004 99.1225 164.692 101.978C164.946 95.0092 165.34 87.232 165.278 82.396C164.754 53.009 180.477 16.806 137.727 3.52505C131.305 1.54455 125.661 0.638335 120.707 0.829735L120.709 0.830086Z" fill="#C0B5F5"/>
</svg>
